<svg width="256" height="151" viewBox="0 0 256 151" fill="none" xmlns="http://www.w3.org/2000/svg">
<rect width="256" height="151" fill="white"/>
<rect width="256" height="151" fill="#E5E8F4"/>
<g clip-path="url(#clip0)">
<path d="M79.4746 77.2608C80.5649 77.0432 81.6773 76.957 82.7881 77.0041C88.0509 76.9973 93.1631 78.7594 97.3033 82.007C101.444 85.2546 104.372 89.7991 105.617 94.9107C105.748 95.3094 105.995 95.6604 106.326 95.9193C106.656 96.1781 107.056 96.3334 107.475 96.3654H131.49C131.746 96.3679 132 96.3169 132.236 96.2159C132.471 96.1149 132.683 95.9659 132.858 95.7784C133.033 95.591 133.167 95.3693 133.251 95.1273C133.335 94.8853 133.368 94.6284 133.348 94.3729C133.236 93.6287 133.191 92.8763 133.214 92.1241C133.208 87.1378 134.376 82.2203 136.624 77.769C138.872 73.3176 142.135 69.4573 146.152 66.5003C150.168 63.5433 154.824 61.5725 159.743 60.7472C164.662 59.922 169.707 60.2655 174.469 61.7499C175.141 62.0188 175.691 61.4808 175.691 60.6863L173.967 32.7081C173.845 31.1654 173.15 29.7242 172.019 28.6679C170.887 27.6116 169.402 27.0166 167.854 27.0001H142.506C140.782 27.0001 139.058 28.589 137.872 30.0558C137.334 30.7158 137.603 31.5102 138.532 31.7791L131.893 56.445L96.7396 63.8767V54.1839C97.2748 54.0843 97.7614 53.8089 98.1224 53.4015C98.4835 52.9941 98.6983 52.478 98.7326 51.9348C98.7294 50.879 98.3084 49.8673 97.5615 49.1208C96.8147 48.3742 95.8027 47.9533 94.7465 47.9501H93.4259C92.3697 47.9533 91.3577 48.3742 90.6108 49.1208C89.864 49.8673 89.4431 50.879 89.4399 51.9348C89.4416 52.4879 89.6448 53.0215 90.0117 53.4355C90.3786 53.8495 90.8839 54.1155 91.4329 54.1839V64.928L86.652 65.9912C84.793 66.2432 83.0527 67.0482 81.6572 68.3015C80.2617 69.5549 79.2754 71.1986 78.8265 73.0194L78.1662 75.8063C77.7504 76.6008 78.5208 77.3952 79.4746 77.2608ZM143.057 31.6448H163.354C163.6 31.6381 163.845 31.6813 164.073 31.7723C164.302 31.8633 164.509 32.0001 164.683 32.1739C164.857 32.3478 164.994 32.5551 165.085 32.7836C165.176 33.012 165.219 33.2567 165.213 33.5025V54.1839C165.219 54.4297 165.176 54.6744 165.085 54.9028C164.994 55.1313 164.857 55.3386 164.683 55.5125C164.509 55.6863 164.302 55.8231 164.073 55.9141C163.845 56.0051 163.6 56.0486 163.354 56.0418H136.552L143.057 31.6448Z" fill="url(#paint0_linear)"/>
<path d="M83.0082 117.621C92.4016 117.621 100.016 110.009 100.016 100.619C100.016 91.2289 92.4016 83.6168 83.0082 83.6168C73.6148 83.6168 66 91.2289 66 100.619C66 110.009 73.6148 117.621 83.0082 117.621Z" fill="url(#paint1_linear)"/>
<path d="M165.726 118C179.684 118 191 106.689 191 92.7351C191 78.7817 179.684 67.4702 165.726 67.4702C151.768 67.4702 140.452 78.7817 140.452 92.7351C140.452 106.689 151.768 118 165.726 118Z" fill="url(#paint2_linear)"/>
<path d="M79.4746 77.2608C80.5649 77.0432 81.6773 76.957 82.7881 77.0041C88.0509 76.9973 93.1631 78.7594 97.3033 82.007C101.444 85.2546 104.372 89.7991 105.617 94.9107C105.748 95.3094 105.995 95.6604 106.326 95.9193C106.656 96.1781 107.056 96.3334 107.475 96.3654H131.49C131.746 96.3679 132 96.3169 132.236 96.2159C132.471 96.1149 132.683 95.9659 132.858 95.7784C133.033 95.591 133.167 95.3693 133.251 95.1273C133.335 94.8853 133.368 94.6284 133.348 94.3729C133.236 93.6287 133.191 92.8763 133.214 92.1241C133.208 87.1378 134.376 82.2203 136.624 77.769C138.872 73.3176 142.135 69.4573 146.152 66.5003C150.168 63.5433 154.824 61.5725 159.743 60.7472C164.662 59.922 169.707 60.2655 174.469 61.7499C175.141 62.0188 175.691 61.4808 175.691 60.6863L173.967 32.7081C173.845 31.1654 173.15 29.7242 172.019 28.6679C170.887 27.6116 169.402 27.0166 167.854 27.0001H142.506C140.782 27.0001 139.058 28.589 137.872 30.0558C137.334 30.7158 137.603 31.5102 138.532 31.7791L131.893 56.445L96.7396 63.8767V54.1839C97.2748 54.0843 97.7614 53.8089 98.1224 53.4015C98.4835 52.9941 98.6983 52.478 98.7326 51.9348C98.7294 50.879 98.3084 49.8673 97.5615 49.1208C96.8147 48.3742 95.8027 47.9533 94.7465 47.9501H93.4259C92.3697 47.9533 91.3577 48.3742 90.6108 49.1208C89.864 49.8673 89.4431 50.879 89.4399 51.9348C89.4416 52.4879 89.6448 53.0215 90.0117 53.4355C90.3786 53.8495 90.8839 54.1155 91.4329 54.1839V64.928L86.652 65.9912C84.793 66.2432 83.0527 67.0482 81.6572 68.3015C80.2617 69.5549 79.2754 71.1986 78.8265 73.0194L78.1662 75.8063C77.7504 76.6008 78.5208 77.3952 79.4746 77.2608ZM143.057 31.6448H163.354C163.6 31.6381 163.845 31.6813 164.073 31.7723C164.302 31.8633 164.509 32.0001 164.683 32.1739C164.857 32.3478 164.994 32.5551 165.085 32.7836C165.176 33.012 165.219 33.2567 165.213 33.5025V54.1839C165.219 54.4297 165.176 54.6744 165.085 54.9028C164.994 55.1313 164.857 55.3386 164.683 55.5125C164.509 55.6863 164.302 55.8231 164.073 55.9141C163.845 56.0051 163.6 56.0486 163.354 56.0418H136.552L143.057 31.6448Z" fill="#B9C2F0"/>
<path d="M83.0082 117.621C92.4016 117.621 100.016 110.009 100.016 100.619C100.016 91.2289 92.4016 83.6168 83.0082 83.6168C73.6148 83.6168 66 91.2289 66 100.619C66 110.009 73.6148 117.621 83.0082 117.621Z" fill="#B9C2F0"/>
<path d="M165.726 118C179.684 118 191 106.689 191 92.7351C191 78.7817 179.684 67.4702 165.726 67.4702C151.768 67.4702 140.452 78.7817 140.452 92.7351C140.452 106.689 151.768 118 165.726 118Z" fill="#B9C2F0"/>
</g>
<defs>
<linearGradient id="paint0_linear" x1="78.0439" y1="61.6766" x2="175.667" y2="61.6766" gradientUnits="userSpaceOnUse">
<stop stop-color="#B9C2F0"/>
<stop offset="1" stop-color="#939FD9"/>
</linearGradient>
<linearGradient id="paint1_linear" x1="66" y1="100.619" x2="100.004" y2="100.619" gradientUnits="userSpaceOnUse">
<stop stop-color="#B9C2F0"/>
<stop offset="1" stop-color="#B9C2F0"/>
</linearGradient>
<linearGradient id="paint2_linear" x1="3218.31" y1="2784.96" x2="5307.95" y2="2784.96" gradientUnits="userSpaceOnUse">
<stop stop-color="#B9C2F0"/>
<stop offset="1" stop-color="#B9C2F0"/>
</linearGradient>
<clipPath id="clip0">
<rect width="125" height="91" fill="white" transform="translate(66 27)"/>
</clipPath>
</defs>
</svg>
